/* XPM */
static char * Robot96_xpm[] = {
"96 96 2 1",
" 	c None",
".	c #000000",
"                                                                        ....                    ",
"                                                                       .......                  ",
"                                                                      .........                 ",
"                                                                     ............               ",
"                                                                    ...............             ",
"                                                                    ................            ",
"                                                                   ...................          ",
"                                                                  ......................        ",
"           ........                                              ........................       ",
"        .............                                           ..........  ...............     ",
"       ................                                         .........     ...............   ",
"     ...................                             ...................       ...............  ",
"    .....................                           ....................         .............. ",
"    ......................                          ...................            .............",
"   .........     ..........                        ...................              ............",
"  ........         ........      ....................................                 ..........",
"  .......           ........     ...................................                    ........",
" .......             .......     ...................................                     ...... ",
" .......     ....     ......      .................................                         .   ",
" ......     ......    .......     .................................                             ",
" ......    .......     ......     .................................                             ",
" ......    ........    ......     .................................                             ",
" ......    ........    ......     .................................                             ",
" ......    ........    ......     .................................                             ",
" ......    .......    .......     .................................                             ",
" .......     ....     .......     .................................                             ",
" .......              ......     ..................................                       ..... ",
"  .......            .......     ...................................                    ....... ",
"  ........          .......      ....................................                  .........",
"   .........      .........      .....................................               ...........",
"   .......................                          ...................            .............",
"    .....................                           ...................           ..............",
"     ...................                             ...................        ............... ",
"      .................                                        ..........     ...............   ",
"        ..............                                          ..........   ..............     ",
"          ..........                                             .........................      ",
"                            .                                     ......................        ",
"                           ...                                    ....................          ",
"    .                     .....                                    ..................           ",
"     ..                  ......                                     ...............             ",
"     ...               .........                                     ............               ",
"      .....         ............                                      ..........                ",
"       ..........................                                     ........                  ",
"       ...........................                                     .....                    ",
"        ..........................                                                              ",
"        ...........................                                                             ",
"         ..........................                                                             ",
"          ..........................                                                            ",
"          ..........................                                                            ",
"           ..........................                                                           ",
"           ...........................                                                          ",
"            ..........................                                                          ",
"            ...........................                                                         ",
"             ..........................                                                         ",
"              ..........................                                                        ",
"              ...........................                                                       ",
"               ..........................                                                       ",
"               ...........................                                                      ",
"                ..........................                                                      ",
"                 ..........................                                                     ",
"                 ..........................                                                     ",
"                  ..........................                                                    ",
"                  ...........................                                                   ",
"                   ..........................                                                   ",
"                    ..........................                                                  ",
"                    ..........................                                                  ",
"                     ..........................                                                 ",
"                     ..........................                                                 ",
"                      ..........................                                                ",
"                      ...........................                                               ",
"                       ..........................                                               ",
"                        ..........................                                              ",
"                        ..........................                                              ",
"                         ..........................                                             ",
"                         ...........................                                            ",
"                          ..........................                                            ",
"                           ..........................                                           ",
"          .............................................................                         ",
"        .................................................................                       ",
"        ..................................................................                      ",
"       ...................................................................                      ",
"       ...................................................................                      ",
"       ...................................................................                      ",
"       ...................................................................                      ",
"       ...................................................................                      ",
"       ...................................................................                      ",
"       ...................................................................                      ",
"       ...................................................................                      ",
"       ...................................................................                      ",
"       ...................................................................                      ",
"       ...................................................................                      ",
"       ...................................................................                      ",
"       ...................................................................                      ",
"        ..................................................................                      ",
"        .................................................................                       ",
"         ...............................................................                        "};
