/* XPM */
static char * Robot64_xpm[] = {
"64 64 2 1",
" 	c None",
".	c #000000",
"                                                ...             ",
"                                               ......           ",
"                                              ........          ",
"                                             ...........        ",
"                                            ..............      ",
"        ....                                ...............     ",
"     .........                             ......  ..........   ",
"    ............                    ............     .......... ",
"   ..............                  .............      ..........",
"  .......  .......                .............         ........",
" ......      .....    ........................            ......",
" .....        .....   .......................              .... ",
" ....   ...    ....   .......................                   ",
".....  .....   ....    .....................                    ",
".....  ......  ....    .....................                    ",
".....  .....   ....    .....................                    ",
" ....   ....   ....   ......................                    ",
" ....         .....   .......................               ... ",
" .....        .....   ........................             .....",
"  .....     ......    ........................           .......",
"  ...............                  ............        .........",
"   .............                   .............      ......... ",
"    ...........                           .......   ..........  ",
"      .......                              .................    ",
"                   .                        ..............      ",
"                  ..                         ............       ",
"   ..           .....                         .........         ",
"    ...       .......                         .......           ",
"    ..................                         .....            ",
"     ..................                          .              ",
"      .................                                         ",
"      ..................                                        ",
"       .................                                        ",
"       ..................                                       ",
"        ..................                                      ",
"         .................                                      ",
"         ..................                                     ",
"          .................                                     ",
"          ..................                                    ",
"           .................                                    ",
"            .................                                   ",
"            ..................                                  ",
"             .................                                  ",
"             ..................                                 ",
"              .................                                 ",
"              ..................                                ",
"               ..................                               ",
"                .................                               ",
"                ..................                              ",
"                 .................                              ",
"                 ..................                             ",
"                  ..................                            ",
"     ............................................               ",
"     ............................................               ",
"     ............................................               ",
"     ............................................               ",
"     ............................................               ",
"     ............................................               ",
"     ............................................               ",
"     ............................................               ",
"     ............................................               ",
"     ............................................               ",
"     ............................................               ",
"      ..........................................                "};
