/* XPM */
static char * Robot72_xpm[] = {
"72 72 2 1",
" 	c None",
".	c #000000",
"                                                      ...               ",
"                                                     ......             ",
"                                                    ........            ",
"                                                   ...........          ",
"                                                  ..............        ",
"                                                  ...............       ",
"        ......                                   ..................     ",
"      ...........                               .......   ...........   ",
"    ..............                      ..............     ...........  ",
"   ................                    ...............       ...........",
"  ..................                   ..............          .........",
"  ......      ......    ............................            ........",
" ......        ......    ..........................               ......",
" .....          .....    .........................                  ... ",
" ....    ....    ....    .........................                      ",
" ....   ......   .....   .........................                      ",
".....   ......   .....   .........................                      ",
".....   ......   .....   .........................                      ",
" ....    ....    .....   .........................                      ",
" .....    ..    .....    .........................                  ..  ",
" .....          .....    ..........................               ......",
"  ......       ......   ............................             .......",
"  ........  ........                   ..............          .........",
"   ................                    ..............        ...........",
"    ..............                      ..............      ........... ",
"     ............                               .......   ...........   ",
"       ........                                  ...................    ",
"                     .                           .................      ",
"                    ...                           ..............        ",
"    .              ....                            ............         ",
"    ...          .......                            .........           ",
"     ......  ...........                             ......             ",
"     ....................                            .....              ",
"      ....................                                              ",
"      ....................                                              ",
"       ....................                                             ",
"        ...................                                             ",
"        ....................                                            ",
"         ....................                                           ",
"         ....................                                           ",
"          ....................                                          ",
"           ...................                                          ",
"           ....................                                         ",
"            ...................                                         ",
"            ....................                                        ",
"             ....................                                       ",
"              ...................                                       ",
"              ....................                                      ",
"               ...................                                      ",
"               ....................                                     ",
"                ....................                                    ",
"                ....................                                    ",
"                 ....................                                   ",
"                  ...................                                   ",
"                  ....................                                  ",
"                   ...................                                  ",
"                   ....................                                 ",
"                    ....................                                ",
"       ...............................................                  ",
"      .................................................                 ",
"      .................................................                 ",
"     ..................................................                 ",
"     ..................................................                 ",
"     ..................................................                 ",
"     ..................................................                 ",
"     ..................................................                 ",
"     ..................................................                 ",
"     ..................................................                 ",
"     ..................................................                 ",
"     ..................................................                 ",
"      .................................................                 ",
"       ...............................................                  "};
